Patient4_TMGait_0pt4_01_left_18_GRF.mot
version=1
nRows=77
nColumns=19
inDegrees=no
endheader
time	F1x	F1y	F1z	M1x	M1y	M1z	F2x	F2y	F2z	M2x	M2y	M2z	EC1x	EC1y	EC1z	EC2x	EC2y	EC2z
21.04	-7.3374	240.7625	16.5245	-74.9725	-22.3935	225.952	-40.206	582.1362	-75.7207	258.6393	88.5167	604.0478	-0.0592	0.0182	-0.0073	-0.0462	0.0165	0.9585
21.0648	-12.1807	204.0174	13.7336	-65.6618	-20.5519	192.751	-33.9137	610.0613	-72.3609	271.0586	84.2436	630.8713	-0.0592	0.0182	-0.0073	-0.0462	0.0165	0.9585
21.0896	-15.9308	164.5189	10.5403	-54.9263	-18.1098	156.7796	-28.4336	639.507	-70.2374	283.7889	81.1257	658.801	-0.0592	0.0182	-0.0073	-0.0462	0.0165	0.9585
21.1144	-17.9474	125.371	7.1637	-43.4681	-15.1023	120.8488	-24.2962	667.0119	-69.2918	295.2263	79.2306	684.3434	-0.0592	0.0182	-0.0073	-0.0462	0.0165	0.9585
21.1391	-18.0619	89.1772	3.9138	-32.057	-11.7373	87.3949	-21.7072	689.9888	-69.1599	304.2433	78.3131	704.8797	-0.0592	0.0182	-0.0073	-0.0462	0.0165	0.9585
21.1639	-16.5936	57.8336	1.1256	-21.4366	-8.3625	58.2411	-20.6405	707.3709	-69.4178	310.4785	78.0435	719.3049	-0.0592	0.0182	-0.0073	-0.0462	0.0165	0.9585
21.1887	-14.0474	32.4395	-0.95678	-12.2437	-5.316	34.4701	-20.8699	719.7086	-69.6771	314.3674	78.0752	728.119	-0.0592	0.0182	-0.0073	-0.0462	0.0165	0.9585
21.2135	-10.9589	13.4166	-2.2289	-4.9497	-2.8508	16.5082	-21.9853	728.7083	-69.6274	316.8998	78.0597	732.9625	-0.0592	0.0182	-0.0073	-0.0462	0.0165	0.9585
21.2383	-7.8083	0.60811	-2.7416	0.19975	-1.0799	4.2201	-23.4551	736.386	-69.0596	319.1919	77.6659	735.7752	-0.0592	0.0182	-0.0073	-0.0462	0.0165	0.9585
21.2631	-4.9464	-6.6236	-2.6724	3.2056	0.037074	-2.9994	-24.7203	744.2002	-67.8839	322.053	76.6194	737.9532	-0.0592	0.0182	-0.0073	-0.0462	0.0165	0.9585
21.2879	-2.525	-9.2576	-2.2386	4.2842	0.64878	-6.0762	-25.3249	752.4698	-66.1309	325.6971	74.7662	739.8223	-0.0592	0.0182	-0.0073	-0.0462	0.0165	0.9585
21.3126	-0.50207	-8.4738	-1.6306	3.8186	0.95123	-6.1093	-24.9768	760.2969	-63.9256	329.7002	72.0887	740.5915	-0.0592	0.0182	-0.0073	-0.0462	0.0165	0.9585
21.3374	1.2924	-5.5472	-1.0085	2.3143	1.1627	-4.2548	-23.5561	766.138	-61.4921	333.26	68.7168	738.9146	-0.0592	0.0182	-0.0073	-0.0462	0.0165	0.9585
21.3622	3.0487	-1.7054	-0.51948	0.33449	1.4949	-1.5772	-21.1364	768.7182	-59.1286	335.6273	64.92	733.787	-0.0592	0.0182	-0.0073	-0.0462	0.0165	0.9585
21.387	4.8792	2.1105	-0.2952	-1.6123	2.1071	1.1793	-17.9419	767.6315	-57.1312	336.413	61.0393	725.1021	-0.0592	0.0182	-0.0073	-0.0462	0.0165	0.9585
21.4118	6.7963	5.5393	-0.43205	-3.2074	3.0771	3.8601	-14.2226	763.1662	-55.7694	335.5565	57.4225	713.4182	-0.0592	0.0182	-0.0073	-0.0462	0.0165	0.9585
21.4366	8.7234	9.0571	-0.96755	-4.4347	4.3887	7.1109	-10.1539	755.883	-55.2147	333.1776	54.3158	699.4924	-0.0592	0.0182	-0.0073	-0.0462	0.0165	0.9585
21.4614	10.503	14.0443	-1.849	-5.613	5.9153	12.4121	-5.8469	746.4025	-55.463	329.4974	51.7949	684.0667	-0.0592	0.0182	-0.0073	-0.0462	0.0165	0.9585
21.4861	11.8927	22.5898	-2.9133	-7.3236	7.4	21.9	-1.4141	735.2595	-56.3399	324.7632	49.7906	667.7549	-0.0592	0.0182	-0.0073	-0.0462	0.0165	0.9585
21.5109	12.5736	37.0979	-3.8697	-10.2716	8.4486	37.987	2.9747	722.5603	-57.5504	319.0757	48.1504	650.7468	-0.0592	0.0182	-0.0073	-0.0462	0.0165	0.9585
21.5357	12.1558	59.7403	-4.2884	-15.1105	8.526	62.8074	7.1081	707.615	-58.6958	312.2098	46.6455	632.4857	-0.0592	0.0182	-0.0073	-0.0462	0.0165	0.9585
21.5605	10.1907	91.6689	-3.613	-22.2104	6.9774	97.419	10.7536	688.8497	-59.307	303.5577	44.9938	611.611	-0.0592	0.0182	-0.0073	-0.0462	0.0165	0.9585
21.5853	6.2951	132.0609	-1.2592	-31.3946	3.167	140.8196	13.6755	664.0695	-58.942	292.23	42.9412	586.2078	-0.0592	0.0182	-0.0073	-0.0462	0.0165	0.9585
21.6101	0.61235	177.5362	3.1297	-41.7936	-3.1389	189.3089	15.6994	631.1766	-57.2928	277.3645	40.325	554.4308	-0.0592	0.0182	-0.0073	-0.0462	0.0165	0.9585
21.6349	-5.9224	225.0146	9.1701	-52.6356	-11.1949	239.3207	16.7906	589.159	-54.2766	258.557	37.1069	515.3557	-0.0592	0.0182	-0.0073	-0.0462	0.0165	0.9585
21.6596	-12.3221	274.6262	16.2131	-63.9945	-19.9969	290.4685	17.1061	538.3818	-49.9804	235.9921	33.2934	469.2361	-0.0592	0.0182	-0.0073	-0.0462	0.0165	0.9585
21.6844	-17.7672	327.7247	23.7762	-76.2388	-28.7813	343.6143	16.8732	480.1115	-44.5012	210.2432	28.8555	417.1087	-0.0592	0.0182	-0.0073	-0.0462	0.0165	0.9585
21.7092	-21.6015	385.0753	31.663	-89.5503	-37.1467	399.1209	16.2181	416.1644	-38.0186	182.1105	23.8637	360.5109	-0.0592	0.0182	-0.0073	-0.0462	0.0165	0.9585
21.734	-23.4809	446.1127	39.824	-103.7465	-44.9581	456.23	15.1265	348.8528	-30.9152	152.5893	18.6062	301.4248	-0.0592	0.0182	-0.0073	-0.0462	0.0165	0.9585
21.7588	-23.4788	508.8754	48.1106	-118.296	-52.1354	513.0787	13.5276	281.0012	-23.7249	122.8875	13.5181	242.2622	-0.0592	0.0182	-0.0073	-0.0462	0.0165	0.9585
21.7836	-21.9841	570.6433	56.1127	-132.5115	-58.4609	567.3136	11.4223	215.889	-17.0027	94.4128	9.0259	185.7904	-0.0592	0.0182	-0.0073	-0.0462	0.0165	0.9585
21.8084	-19.5232	628.3433	63.2339	-145.6556	-63.5916	616.4141	8.9666	156.8828	-11.2135	68.618	5.4214	134.8188	-0.0592	0.0182	-0.0073	-0.0462	0.0165	0.9585
21.8331	-16.6385	678.6835	68.952	-156.9433	-67.2604	657.7293	6.4502	106.7244	-6.6392	46.6917	2.8007	91.608	-0.0592	0.0182	-0.0073	-0.0462	0.0165	0.9585
21.8579	-13.7658	718.6454	72.9793	-165.6464	-69.3778	688.8501	4.1748	66.9144	-3.3447	29.2869	1.0907	57.3721	-0.0592	0.0182	-0.0073	-0.0462	0.0165	0.9585
21.8827	-11.1179	746.2536	75.2432	-171.2899	-69.976	708.2492	2.3555	37.6062	-1.2322	16.4711	0.12997	32.2015	-0.0592	0.0182	-0.0073	-0.0462	0.0165	0.9585
21.9075	-8.6946	761.1124	75.8763	-173.7865	-69.1967	715.7424	1.0767	17.8528	-0.084444	7.831	-0.28403	15.2548	-0.0592	0.0182	-0.0073	-0.0462	0.0165	0.9585
21.9323	-6.3826	764.5601	75.1991	-173.4717	-67.3076	712.6384	0.28263	5.9313	0.38042	2.6146	-0.35153	5.031	-0.0592	0.0182	-0.0073	-0.0462	0.0165	0.9585
21.9571	-4.0252	759.4942	73.6292	-171.0651	-64.6479	701.5896	-0.12889	-0.20508	0.415	-0.072793	-0.2315	-0.24545	-0.0592	0.0182	-0.0073	-0.0462	0.0165	0.9585
21.9819	-1.4727	749.7726	71.5781	-167.5339	-61.5514	686.0682	-0.26465	-2.4954	0.22174	-1.0808	-0.040284	-2.2505	-0.0592	0.0182	-0.0073	-0.0462	0.0165	0.9585
22.0066	1.379	739.3063	69.3819	-163.8717	-58.2915	669.5803	-0.21993	-2.5426	-0.052024	-1.1114	0.14435	-2.3624	-0.0592	0.0182	-0.0073	-0.0462	0.0165	0.9585
22.0314	4.5762	731.2108	67.2822	-160.8832	-55.0658	654.9375	-0.070282	-1.5181	-0.30691	-0.67707	0.27163	-1.5827	-0.0592	0.0182	-0.0073	-0.0462	0.0165	0.9585
22.0562	8.1166	727.2904	65.4524	-159.0543	-52.0172	643.835	0.13155	-0.15751	-0.48251	-0.097107	0.31113	-0.52401	-0.0592	0.0182	-0.0073	-0.0462	0.0165	0.9585
22.081	11.9556	727.9202	64.0324	-158.5313	-49.2663	636.7744	0.35145	1.2081	-0.54977	0.48754	0.25124	0.56112	-0.0592	0.0182	-0.0073	-0.0462	0.0165	0.9585
22.1058	15.9895	732.3052	63.1387	-159.2079	-46.9352	633.3051	0.56384	2.6049	-0.50646	1.0946	0.10069	1.7449	-0.0592	0.0182	-0.0073	-0.0462	0.0165	0.9585
22.1306	20.0607	739.0236	62.8434	-160.894	-45.1314	632.4849	0.73684	4.3689	-0.37511	1.8804	-0.10621	3.3859	-0.0592	0.0182	-0.0073	-0.0462	0.0165	0.9585
22.1554	23.9894	746.6032	63.1121	-163.486	-43.8861	633.3539	0.82422	7.0858	-0.20557	3.1153	-0.30431	6.072	-0.0592	0.0182	-0.0073	-0.0462	0.0165	0.9585
22.1801	27.5763	753.8688	63.7263	-167.0473	-43.086	635.2079	0.76277	11.5185	-0.084669	5.1533	-0.38188	10.5587	-0.0592	0.0182	-0.0073	-0.0462	0.0165	0.9585
22.2049	30.5736	759.9423	64.2607	-171.7579	-42.4572	637.5855	0.47153	18.5096	-0.13881	8.3852	-0.1754	17.6727	-0.0592	0.0182	-0.0073	-0.0462	0.0165	0.9585
22.2297	32.6591	763.9649	64.1282	-177.7421	-41.6044	639.9975	-0.14752	28.8156	-0.53493	13.16	0.52532	28.1387	-0.0592	0.0182	-0.0073	-0.0462	0.0165	0.9585
22.2545	33.4525	764.5758	62.6484	-184.7836	-40.0627	641.3982	-1.1999	42.8444	-1.4778	19.6643	1.9664	42.3119	-0.0592	0.0182	-0.0073	-0.0462	0.0165	0.9585
22.2793	32.5757	759.3652	59.1747	-191.9993	-37.3988	639.5769	-2.809	60.3285	-3.1742	27.772	4.3976	59.8453	-0.0592	0.0182	-0.0073	-0.0462	0.0165	0.9585
22.3041	29.8858	745.6092	53.5801	-198.0208	-33.5739	631.7283	-5.0461	80.3283	-5.6689	37.0491	7.8721	79.695	-0.0592	0.0182	-0.0073	-0.0462	0.0165	0.9585
22.3289	25.791	723.2208	46.4593	-202.2193	-28.9826	617.1928	-7.676	102.0599	-8.8568	47.1301	12.1534	100.961	-0.0592	0.0182	-0.0073	-0.0462	0.0165	0.9585
22.3536	20.9223	694.24	38.6688	-204.7098	-24.138	597.1886	-10.2636	125.3258	-12.6228	57.9175	16.9051	123.3267	-0.0592	0.0182	-0.0073	-0.0462	0.0165	0.9585
22.3784	15.7122	660.2509	30.9146	-205.4987	-19.4901	572.6394	-12.4075	150.4973	-16.9016	69.5763	21.8573	147.05	-0.0592	0.0182	-0.0073	-0.0462	0.0165	0.9585
22.4032	10.3478	621.7936	23.5523	-204.2945	-15.2766	543.6556	-13.8322	178.4703	-21.6946	82.515	26.8649	172.9189	-0.0592	0.0182	-0.0073	-0.0462	0.0165	0.9585
22.428	4.8629	579.2839	16.7164	-200.8054	-11.6042	510.3232	-14.3946	210.2278	-26.9831	97.185	31.8312	201.8208	-0.0592	0.0182	-0.0073	-0.0462	0.0165	0.9585
22.4528	-0.65764	533.9465	10.5602	-195.0381	-8.5856	473.5091	-14.0977	246.1844	-32.6208	113.7793	36.6147	234.1052	-0.0592	0.0182	-0.0073	-0.0462	0.0165	0.9585
22.4776	-5.9172	487.705	5.275	-187.2627	-6.299	434.7601	-13.0144	285.7675	-38.3126	132.037	40.9731	269.1843	-0.0592	0.0182	-0.0073	-0.0462	0.0165	0.9585
22.5024	-10.4979	442.2974	1.0151	-177.7698	-4.7495	395.5774	-11.2312	327.4284	-43.6818	151.2475	44.6035	305.5602	-0.0592	0.0182	-0.0073	-0.0462	0.0165	0.9585
22.5271	-14.0345	398.7405	-2.1665	-166.781	-3.8595	356.9838	-8.8497	369.022	-48.359	170.4255	47.2285	341.2081	-0.0592	0.0182	-0.0073	-0.0462	0.0165	0.9585
22.5519	-16.316	357.6645	-4.3172	-154.6087	-3.4818	319.7627	-6.0196	408.3488	-52.0469	188.5596	48.6684	374.0935	-0.0592	0.0182	-0.0073	-0.0462	0.0165	0.9585
22.5767	-17.3895	319.7686	-5.514	-141.7969	-3.4907	284.7802	-2.9574	443.6586	-54.5684	204.845	48.8913	402.6432	-0.0592	0.0182	-0.0073	-0.0462	0.0165	0.9585
22.6015	-17.4905	285.9241	-5.8614	-129.1125	-3.7917	253.0225	0.085952	473.9379	-55.8923	218.818	48.0199	426.0009	-0.0592	0.0182	-0.0073	-0.0462	0.0165	0.9585
22.6263	-16.8629	257.1145	-5.5277	-117.4446	-4.2695	225.5011	2.9052	498.9072	-56.1322	230.3538	46.2827	444.0068	-0.0592	0.0182	-0.0073	-0.0462	0.0165	0.9585
22.6511	-15.7091	234.2849	-4.7063	-107.6499	-4.8021	203.1123	5.3602	518.7545	-55.5002	239.5406	43.9624	456.9391	-0.0592	0.0182	-0.0073	-0.0462	0.0165	0.9585
22.6759	-14.1962	218.0132	-3.5819	-100.3511	-5.2824	186.3748	7.3986	533.8651	-54.2349	246.5548	41.3149	465.2614	-0.0592	0.0182	-0.0073	-0.0462	0.0165	0.9585
22.7006	-12.4603	208.0788	-2.3089	-95.7208	-5.6371	175.1077	9.0545	544.7155	-52.5776	251.6126	38.546	469.5174	-0.0592	0.0182	-0.0073	-0.0462	0.0165	0.9585
22.7254	-10.6035	203.215	-1.0161	-93.3642	-5.8251	168.2658	10.4177	551.8928	-50.7687	254.9759	35.8272	470.3404	-0.0592	0.0182	-0.0073	-0.0462	0.0165	0.9585
22.7502	-8.7043	201.3517	0.16999	-92.4323	-5.8137	164.1697	11.6075	556.1256	-49.0368	256.9703	33.3005	468.4765	-0.0592	0.0182	-0.0073	-0.0462	0.0165	0.9585
22.775	-6.8101	200.2931	1.1244	-91.9354	-5.564	161.0802	12.746	558.2444	-47.58	257.9679	31.0733	464.7423	-0.0592	0.0182	-0.0073	-0.0462	0.0165	0.9585
22.7998	-4.9157	198.5705	1.7389	-91.1331	-5.0243	157.8868	13.9211	559.0363	-46.5499	258.3235	29.2239	459.901	-0.0592	0.0182	-0.0073	-0.0462	0.0165	0.9585
22.8246	-2.9624	196.0655	1.932	-89.8193	-4.1313	154.5939	15.1453	559.1273	-46.0404	258.3211	27.8152	454.5704	-0.0592	0.0182	-0.0073	-0.0462	0.0165	0.9585
22.8494	-0.84059	194.1242	1.6604	-88.3759	-2.8177	152.3876	16.3305	558.8463	-46.0846	258.1094	26.9087	449.1162	-0.0592	0.0182	-0.0073	-0.0462	0.0165	0.9585
22.8741	1.5788	195.1947	0.93741	-87.6122	-1.0431	153.3236	17.3279	558.0317	-46.6385	257.6137	26.5368	443.5061	-0.0592	0.0182	-0.0073	-0.0462	0.0165	0.9585
22.8989	4.4087	202.1116	-0.13316	-88.4606	1.1654	159.7518	17.9444	555.9059	-47.5693	256.4777	26.6857	437.2219	-0.0592	0.0182	-0.0073	-0.0462	0.0165	0.9585
22.9237	7.669	217.2857	-1.3183	-91.6544	3.6491	173.6646	17.9875	551.1027	-48.6404	254.0753	27.2648	429.2831	-0.0592	0.0182	-0.0073	-0.0462	0.0165	0.9585
